<?xml version="1.0" encoding="UTF-8"?><svg id="Layer_2" xmlns="http://www.w3.org/2000/svg" viewBox="0 0 81.21 25.29"><defs><style>.cls-1{fill:#232323;}</style></defs><g id="Layer_1-2"><g><g><path class="cls-1" d="M38.24,12.12v4.91h-1.55v-4.73c0-1.67-.8-2.49-2.21-2.49-1.55,0-2.56,.98-2.56,2.83v4.39h-1.55v-4.73c0-1.67-.8-2.49-2.21-2.49-1.55,0-2.56,.98-2.56,2.83v4.39h-1.54V8.5h1.48v1.27c.61-.87,1.66-1.35,2.95-1.35s2.4,.52,2.96,1.58c.64-.97,1.83-1.58,3.28-1.58,2.08,0,3.49,1.19,3.49,3.7Z"/><path class="cls-1" d="M47.85,11.88v5.15h-1.46v-1.13c-.52,.77-1.46,1.22-2.8,1.22-1.93,0-3.16-1.03-3.16-2.51,0-1.37,.89-2.49,3.43-2.49h2.45v-.31c0-1.3-.76-2.06-2.29-2.06-1.01,0-2.04,.35-2.7,.92l-.64-1.16c.88-.71,2.16-1.09,3.52-1.09,2.33,0,3.65,1.13,3.65,3.46Zm-1.54,2.54v-1.19h-2.38c-1.53,0-1.96,.6-1.96,1.32,0,.85,.71,1.38,1.88,1.38s2.08-.53,2.46-1.51Z"/><path class="cls-1" d="M55.31,8.42v1.5c-.13-.02-.24-.02-.35-.02-1.66,0-2.69,1.01-2.69,2.88v4.25h-1.55V8.5h1.48v1.43c.55-1,1.61-1.51,3.11-1.51Z"/><path class="cls-1" d="M60.52,13.05l-1.77,1.64v2.33h-1.55V5.09h1.55v7.66l4.65-4.25h1.87l-3.59,3.53,3.94,5.01h-1.9l-3.2-3.98Z"/><path class="cls-1" d="M74.45,13.28h-6.92c.19,1.5,1.4,2.49,3.09,2.49,1,0,1.83-.34,2.46-1.03l.85,1c-.77,.9-1.95,1.38-3.36,1.38-2.75,0-4.59-1.82-4.59-4.36s1.82-4.35,4.28-4.35,4.22,1.77,4.22,4.39c0,.13-.02,.32-.03,.47Zm-6.92-1.11h5.47c-.16-1.43-1.24-2.45-2.74-2.45s-2.58,1-2.74,2.45Z"/><path class="cls-1" d="M81.21,8.42v1.5c-.13-.02-.24-.02-.35-.02-1.66,0-2.69,1.01-2.69,2.88v4.25h-1.54V8.5h1.48v1.43c.55-1,1.61-1.51,3.11-1.51Z"/></g><g><path class="cls-1" d="M17.73,2.38H4.99V25.29h.03l3.92-2.66,3.93-2.66,3.93,2.66,3.93,2.66V5.37c0-1.65-1.34-2.99-2.99-2.99Zm-4.19,11.1l-.68,1.39-.68-1.39-1.53-.22,1.11-1.08-.26-1.52,1.37,.72,1.37-.72-.26,1.52,1.11,1.08-1.53,.22Z"/><path class="cls-1" d="M15.51,1.84h.68c-.28-1.63-1.89-1.84-3.12-1.84H0V25.29H.35l4.13-4v-1.1l-3.79,3.63L.67,.67H13.07c1.51,0,2.24,.34,2.44,1.17Z"/></g></g></g></svg>